<svg width="20" height="20" viewBox="0 0 20 20" fill="none" xmlns="http://www.w3.org/2000/svg">
<path d="M15.8334 11.6667C17.075 10.45 18.3334 8.99167 18.3334 7.08333C18.3334 5.86776 17.8505 4.70197 16.9909 3.84243C16.1314 2.98289 14.9656 2.5 13.75 2.5C12.2834 2.5 11.25 2.91667 10 4.16667C8.75002 2.91667 7.71669 2.5 6.25002 2.5C5.03444 2.5 3.86866 2.98289 3.00911 3.84243C2.14957 4.70197 1.66669 5.86776 1.66669 7.08333C1.66669 9 2.91669 10.4583 4.16669 11.6667L10 17.5L15.8334 11.6667Z" stroke="#5489FF" stroke-width="1.66667" stroke-linecap="round" stroke-linejoin="round"/>
<path d="M10 4.16667L7.53334 6.63333C7.36402 6.80142 7.22964 7.00135 7.13794 7.22161C7.04624 7.44186 6.99902 7.67809 6.99902 7.91667C6.99902 8.15525 7.04624 8.39147 7.13794 8.61173C7.22964 8.83198 7.36402 9.03191 7.53334 9.2C8.21667 9.88333 9.30834 9.90833 10.0333 9.25833L11.7583 7.675C12.1907 7.28266 12.7537 7.06533 13.3375 7.06533C13.9214 7.06533 14.4843 7.28266 14.9167 7.675L17.3833 9.89167" stroke="#5489FF" stroke-width="1.66667" stroke-linecap="round" stroke-linejoin="round"/>
<path d="M15 12.5L13.3333 10.8333" stroke="#5489FF" stroke-width="1.66667" stroke-linecap="round" stroke-linejoin="round"/>
<path d="M12.5 15L10.8333 13.3333" stroke="#5489FF" stroke-width="1.66667" stroke-linecap="round" stroke-linejoin="round"/>
</svg>
